PathFileType	4	(X/Y/Z)	C:/Users/opensim2020/Desktop/walking_exp_matlab/subject03_walking15_straight_01.trc	
DataRate	CameraRate	NumFrames	NumMarkers	Units	OrigDataRate	OrigDataStartFrame	OrigNumFrames	
100.00	100.00	4	47	mm	100.00	623	196	
Frame#	Time	LFHD			RFHD			LBHD			RBHD			C7			T10			CLAV			STRN			RBAK			LSHO			LUPA			LELB			LFRM			LWRA			LWRB			LFIN			RSHO			RUPA			RELB			RFRM			RWRA			RWRB			RFIN			LASI			RASI			LPSI			RPSI			LTHI			LKNE			LTIB			LANK			LHEE			LTOE			RTHI			RKNE			RTIB			RANK			RHEE			RTOE			*39			*40			*41			*42			*43			*44			*45			*46			
		X1	Y1	Z1	X2	Y2	Z2	X3	Y3	Z3	X4	Y4	Z4	X5	Y5	Z5	X6	Y6	Z6	X7	Y7	Z7	X8	Y8	Z8	X9	Y9	Z9	X10	Y10	Z10	X11	Y11	Z11	X12	Y12	Z12	X13	Y13	Z13	X14	Y14	Z14	X15	Y15	Z15	X16	Y16	Z16	X17	Y17	Z17	X18	Y18	Z18	X19	Y19	Z19	X20	Y20	Z20	X21	Y21	Z21	X22	Y22	Z22	X23	Y23	Z23	X24	Y24	Z24	X25	Y25	Z25	X26	Y26	Z26	X27	Y27	Z27	X28	Y28	Z28	X29	Y29	Z29	X30	Y30	Z30	X31	Y31	Z31	X32	Y32	Z32	X33	Y33	Z33	X34	Y34	Z34	X35	Y35	Z35	X36	Y36	Z36	X37	Y37	Z37	X38	Y38	Z38	X39	Y39	Z39	X40	Y40	Z40	X41	Y41	Z41	X42	Y42	Z42	X43	Y43	Z43	X44	Y44	Z44	X45	Y45	Z45	X46	Y46	Z46	X47	Y47	Z47	

123	1.220	1390.13318	464.35886	1624.19519	1522.21289	466.83224	1634.45190	1401.63867	345.54343	1561.79810	1531.86658	353.00470	1572.21765	1465.39429	337.22861	1406.83716	1462.01306	323.41245	1095.45203	1459.65369	464.03030	1340.16589	1447.93201	519.72089	1178.52710	1557.50134	302.18747	1227.08728	1307.71069	409.08948	1375.89380	1230.59106	432.66080	1186.52319	1219.40906	472.45172	1074.43030	1244.30664	574.66492	1009.29871	1301.88367	667.18573	958.87689	1254.10291	658.47955	933.19971	1277.70154	733.43457	910.74548	1621.89844	420.69891	1359.06555	1694.91846	411.24316	1137.00317	1707.95581	416.43671	1023.83942	1712.69092	413.68970	886.41986	1678.09937	424.96783	785.82013	1725.36951	397.33664	787.26563	1712.52698	401.16742	710.64148	1332.71423	477.17328	930.12408	1569.14319	501.80609	944.09454	1399.25037	320.75723	947.66425	1545.24536	336.46866	967.36432	1280.34338	431.53638	625.48364	1292.10449	453.87271	446.15027	1310.01599	293.94821	333.60846	1365.40027	133.16452	211.77533	1411.41895	92.78161	228.78168	1378.63696	168.72002	64.60616	1618.72595	487.71616	649.69757	1574.06458	536.32733	479.45911	1578.92798	503.54999	286.55365	1529.05078	479.70651	73.26083	1480.64099	432.40256	41.06956	1503.52576	619.96735	36.57663	1439.36914	373.37964	1671.36865																					 
124	1.230	1389.97205	477.29791	1625.61426	1522.24280	480.21567	1635.83716	1402.10486	358.39386	1563.52307	1532.24756	366.22830	1573.95288	1466.19543	349.82651	1408.51880	1462.48218	335.77066	1097.02222	1459.50989	476.45325	1341.66760	1447.54114	531.96338	1179.96814	1558.91870	315.28699	1228.60876	1307.76794	420.41083	1377.35742	1230.97192	441.94766	1187.32690	1219.82129	481.22034	1074.80786	1244.50012	582.66364	1007.96454	1301.39417	674.42804	955.94849	1253.46680	665.27972	930.46051	1277.74548	739.82068	905.95013	1622.03210	434.46988	1360.51892	1695.72290	427.64694	1138.49719	1708.94189	433.76160	1025.44995	1713.64490	432.80969	887.98859	1678.92639	445.03937	787.66034	1726.26917	418.03235	788.58917	1713.51404	423.47623	712.23651	1332.76563	489.00089	931.34387	1569.59888	514.17981	945.26440	1399.80078	333.17722	949.22125	1545.83667	348.69870	969.20166	1281.01379	450.42746	627.56262	1291.81616	478.62363	449.14096	1310.28040	319.79721	335.90097	1365.65527	160.18988	211.65344	1411.20557	118.59581	226.72415	1377.43127	201.21300	65.65662	1618.92419	495.87988	650.54810	1574.37451	540.59863	479.12457	1579.00464	505.33780	286.65561	1529.01526	479.55490	73.43732	1480.49780	432.33719	41.36484	1503.57336	619.91687	36.54388	1439.24097	386.51236	1672.80566																					 
125	1.240	1390.23254	490.29034	1626.89709	1522.22742	493.60538	1637.22803	1402.52124	371.19598	1565.30786	1532.53418	379.40729	1575.70166	1466.94189	362.45438	1410.18774	1462.98853	347.91638	1098.61377	1459.34375	488.80191	1343.17212	1447.22009	544.11438	1181.43787	1560.01196	328.27551	1230.19055	1307.77380	431.65228	1378.96448	1231.27783	451.00842	1188.30579	1220.58362	489.76349	1075.13831	1244.56934	590.39246	1006.37756	1300.86597	681.38934	952.13318	1252.65662	671.58606	927.18750	1277.31372	745.63184	900.39905	1622.05640	447.97382	1362.02905	1696.27075	443.98999	1139.98840	1709.70288	451.23196	1027.15295	1714.50916	452.25375	889.82452	1679.24255	465.86374	789.68982	1727.12256	439.13336	790.10797	1714.52795	446.26688	714.10785	1333.42554	501.38126	933.39801	1570.15588	526.25635	946.43890	1400.29089	345.60297	951.03601	1546.32874	360.73184	970.91577	1281.72131	469.71439	629.79913	1291.93689	502.88034	452.59378	1310.45459	345.54440	337.32639	1365.58899	188.16844	209.80505	1410.88196	145.06343	222.81007	1377.26062	235.46324	66.30244	1619.01123	504.22617	651.43744	1574.55835	544.54211	478.81934	1579.04626	506.73898	286.87289	1528.89282	479.53671	73.68192	1480.17957	432.44424	41.71617	1503.61572	619.94281	36.54272	1439.98584	399.83975	1674.59009																					 
126	1.250	1389.98340	503.17847	1628.22437	1522.14063	506.95398	1638.45593	1402.91443	383.87674	1567.12939	1532.80286	392.53314	1577.46558	1467.54724	374.91647	1411.84607	1463.56726	360.29572	1100.09607	1459.17725	501.13113	1344.60034	1446.96777	556.22839	1182.82764	1560.86731	341.03357	1231.82690	1307.81421	442.83197	1380.61475	1231.57837	459.90109	1189.24878	1221.46252	498.40793	1075.63123	1244.53857	597.89307	1004.56323	1300.15991	687.99042	947.98022	1251.71497	677.37866	923.45898	1276.31982	750.70575	894.14691	1622.09229	461.29279	1363.59473	1696.61731	460.21573	1141.59619	1710.15430	468.98721	1028.97900	1715.14441	472.03598	891.73309	1679.68628	486.67776	791.88391	1728.05115	460.54413	791.87421	1715.56213	469.53864	716.07117	1334.27051	514.14294	935.45715	1570.85803	538.15863	947.61267	1400.52954	358.17566	953.02606	1546.69873	372.82953	972.50653	1282.43335	489.01440	632.09503	1292.53516	526.66443	456.20880	1310.79834	371.45877	337.85950	1365.56482	216.90712	206.40028	1410.54150	172.27908	217.09412	1376.74219	271.50433	65.52097	1618.97168	512.70978	652.10944	1574.73242	548.21112	478.44992	1579.14453	507.78137	287.19452	1528.67603	479.38873	73.96569	1480.02344	432.45154	42.13306	1503.66077	619.96362	36.50224	1440.24231	413.24414	1676.38318																					 
